<mxfile host="app.diagrams.net" modified="2023-12-13T22:05:48.730Z" agent="Mozilla/5.0 (Macintosh; Intel Mac OS X 10_15_7) AppleWebKit/537.36 (KHTML, like Gecko) Chrome/119.0.0.0 Safari/537.36" etag="hgN19r7BfvZwxEtt1ZWc" version="22.1.8" type="device">
  <diagram name="Page-1" id="Y2D5G1NJOct-wqYYKSaP">
    <mxGraphModel dx="954" dy="560" grid="1" gridSize="10" guides="1" tooltips="1" connect="1" arrows="1" fold="1" page="1" pageScale="1" pageWidth="850" pageHeight="1100" math="0" shadow="0">
      <root>
        <mxCell id="0" />
        <mxCell id="1" parent="0" />
        <mxCell id="trHiihsDUhTbvpWH3-bE-6" value="Customer" style="whiteSpace=wrap;html=1;align=center;fillColor=#dae8fc;strokeColor=#6c8ebf;" parent="1" vertex="1">
          <mxGeometry x="100" y="780" width="100" height="40" as="geometry" />
        </mxCell>
        <mxCell id="trHiihsDUhTbvpWH3-bE-8" value="Chef" style="whiteSpace=wrap;html=1;align=center;fillColor=#dae8fc;strokeColor=#6c8ebf;" parent="1" vertex="1">
          <mxGeometry x="100" y="360" width="100" height="40" as="geometry" />
        </mxCell>
        <mxCell id="trHiihsDUhTbvpWH3-bE-10" value="Location" style="whiteSpace=wrap;html=1;align=center;fillColor=#dae8fc;strokeColor=#6c8ebf;" parent="1" vertex="1">
          <mxGeometry x="100" y="200" width="100" height="40" as="geometry" />
        </mxCell>
        <mxCell id="trHiihsDUhTbvpWH3-bE-12" value="Reviews" style="whiteSpace=wrap;html=1;align=center;fillColor=#dae8fc;strokeColor=#6c8ebf;" parent="1" vertex="1">
          <mxGeometry x="100" y="590" width="100" height="40" as="geometry" />
        </mxCell>
        <mxCell id="trHiihsDUhTbvpWH3-bE-39" value="Recipe" style="whiteSpace=wrap;html=1;align=center;fillColor=#dae8fc;strokeColor=#6c8ebf;" parent="1" vertex="1">
          <mxGeometry x="390" y="590" width="100" height="40" as="geometry" />
        </mxCell>
        <mxCell id="trHiihsDUhTbvpWH3-bE-43" value="1" style="endArrow=open;html=1;endSize=12;startArrow=diamondThin;startSize=14;startFill=0;edgeStyle=orthogonalEdgeStyle;align=left;verticalAlign=bottom;rounded=0;exitX=0.5;exitY=0;exitDx=0;exitDy=0;entryX=0.5;entryY=1;entryDx=0;entryDy=0;" parent="1" source="trHiihsDUhTbvpWH3-bE-6" target="trHiihsDUhTbvpWH3-bE-12" edge="1">
          <mxGeometry x="-1" y="3" relative="1" as="geometry">
            <mxPoint x="230" y="700" as="sourcePoint" />
            <mxPoint x="390" y="700" as="targetPoint" />
          </mxGeometry>
        </mxCell>
        <mxCell id="trHiihsDUhTbvpWH3-bE-47" value="0..*" style="edgeLabel;html=1;align=center;verticalAlign=middle;resizable=0;points=[];" parent="trHiihsDUhTbvpWH3-bE-43" vertex="1" connectable="0">
          <mxGeometry x="0.6485" relative="1" as="geometry">
            <mxPoint as="offset" />
          </mxGeometry>
        </mxCell>
        <mxCell id="trHiihsDUhTbvpWH3-bE-44" value="1" style="endArrow=open;html=1;endSize=12;startArrow=diamondThin;startSize=14;startFill=0;edgeStyle=orthogonalEdgeStyle;align=left;verticalAlign=bottom;rounded=0;exitX=0.5;exitY=0;exitDx=0;exitDy=0;entryX=0.5;entryY=0;entryDx=0;entryDy=0;" parent="1" target="trHiihsDUhTbvpWH3-bE-12" edge="1">
          <mxGeometry x="-1" y="3" relative="1" as="geometry">
            <mxPoint x="149.55" y="400" as="sourcePoint" />
            <mxPoint x="149.55" y="560" as="targetPoint" />
          </mxGeometry>
        </mxCell>
        <mxCell id="trHiihsDUhTbvpWH3-bE-46" value="0..*" style="edgeLabel;html=1;align=center;verticalAlign=middle;resizable=0;points=[];" parent="trHiihsDUhTbvpWH3-bE-44" vertex="1" connectable="0">
          <mxGeometry x="0.2406" y="1" relative="1" as="geometry">
            <mxPoint x="-1" y="32" as="offset" />
          </mxGeometry>
        </mxCell>
        <mxCell id="trHiihsDUhTbvpWH3-bE-48" value="1" style="endArrow=open;html=1;endSize=12;startArrow=diamondThin;startSize=14;startFill=0;edgeStyle=orthogonalEdgeStyle;align=left;verticalAlign=bottom;rounded=0;exitX=0;exitY=0.5;exitDx=0;exitDy=0;entryX=1;entryY=0.5;entryDx=0;entryDy=0;" parent="1" source="trHiihsDUhTbvpWH3-bE-39" target="trHiihsDUhTbvpWH3-bE-12" edge="1">
          <mxGeometry x="-1" y="3" relative="1" as="geometry">
            <mxPoint x="380" y="609.55" as="sourcePoint" />
            <mxPoint x="220" y="609.55" as="targetPoint" />
          </mxGeometry>
        </mxCell>
        <mxCell id="trHiihsDUhTbvpWH3-bE-51" value="0..*" style="edgeLabel;html=1;align=center;verticalAlign=middle;resizable=0;points=[];" parent="trHiihsDUhTbvpWH3-bE-48" vertex="1" connectable="0">
          <mxGeometry x="0.2574" relative="1" as="geometry">
            <mxPoint as="offset" />
          </mxGeometry>
        </mxCell>
        <mxCell id="trHiihsDUhTbvpWH3-bE-61" value="1" style="endArrow=open;html=1;endSize=12;startArrow=diamondThin;startSize=14;startFill=0;edgeStyle=orthogonalEdgeStyle;align=left;verticalAlign=bottom;rounded=0;exitX=0.5;exitY=1;exitDx=0;exitDy=0;" parent="1" source="trHiihsDUhTbvpWH3-bE-10" edge="1">
          <mxGeometry x="-1" y="3" relative="1" as="geometry">
            <mxPoint x="159.55" y="410" as="sourcePoint" />
            <mxPoint x="150" y="360" as="targetPoint" />
          </mxGeometry>
        </mxCell>
        <mxCell id="trHiihsDUhTbvpWH3-bE-64" value="1..*" style="edgeLabel;html=1;align=center;verticalAlign=middle;resizable=0;points=[];" parent="trHiihsDUhTbvpWH3-bE-61" vertex="1" connectable="0">
          <mxGeometry x="0.4871" relative="1" as="geometry">
            <mxPoint as="offset" />
          </mxGeometry>
        </mxCell>
      </root>
    </mxGraphModel>
  </diagram>
</mxfile>
